<svg version="1.1" xmlns="http://www.w3.org/2000/svg" viewBox="-43.500001000000005 -36.972096634443645 87.00000200000001 73.94419326888729" fill="none" stroke="black" stroke-width="0.6%" vector-effect="non-scaling-stroke">
    <path d="M -30.05204 -31.60792 A 42.5 14.90022 360 0 1 42.5 -21.07187 A 42.5 14.90022 360 0 1 -42.5 -21.07187 A 42.5 14.90022 360 0 1 -30.05204 -31.60792 Z" />
    <path d="M -42.5 21.07187 A 42.5 14.90022 180 0 0 42.5 21.07187" />
    <path d="M -3.53553 -22.31141 A 5 1.75297 360 0 1 5 -21.07187 A 5 1.75297 360 0 1 -5 -21.07187 A 5 1.75297 360 0 1 -3.53553 -22.31141 Z" />
    <path d="M -42.5 -21.07187 L -42.5 21.07187" />
    <path d="M 42.5 -21.07187 L 42.5 21.07187" />
</svg>